<?xml version="1.0" encoding="UTF-8" standalone="no"?>
<!-- Generator: Adobe Illustrator 27.5.0, SVG Export Plug-In . SVG Version: 6.00 Build 0)  -->

<svg
   version="1.1"
   id="Ñëîé_5"
   x="0px"
   y="0px"
   viewBox="0 0 500 500"
   style="enable-background:new 0 0 500 500;"
   xml:space="preserve"
   sodipodi:docname="4015765_195.svg"
   inkscape:version="1.3.2 (091e20e, 2023-11-25, custom)"
   xmlns:inkscape="http://www.inkscape.org/namespaces/inkscape"
   xmlns:sodipodi="http://sodipodi.sourceforge.net/DTD/sodipodi-0.dtd"
   xmlns="http://www.w3.org/2000/svg"
   xmlns:svg="http://www.w3.org/2000/svg"><defs
   id="defs86" /><sodipodi:namedview
   id="namedview86"
   pagecolor="#ffffff"
   bordercolor="#000000"
   borderopacity="0.25"
   inkscape:showpageshadow="2"
   inkscape:pageopacity="0.0"
   inkscape:pagecheckerboard="0"
   inkscape:deskcolor="#d1d1d1"
   showgrid="false"
   inkscape:zoom="1.554"
   inkscape:cx="108.42986"
   inkscape:cy="179.21493"
   inkscape:window-width="1920"
   inkscape:window-height="991"
   inkscape:window-x="-9"
   inkscape:window-y="-9"
   inkscape:window-maximized="1"
   inkscape:current-layer="g82" />
<g
   id="g82">
	<linearGradient
   id="SVGID_1_"
   gradientUnits="userSpaceOnUse"
   x1="141.9633"
   y1="197.7943"
   x2="154.8226"
   y2="232.6981"
   gradientTransform="matrix(0.49503268,0,0,0.49738326,296.61232,72.83018)">
		<stop
   offset="0"
   style="stop-color:#AEF0EB"
   id="stop1" />
		<stop
   offset="0.0131"
   style="stop-color:#B0F0EB"
   id="stop2" />
		<stop
   offset="0.1379"
   style="stop-color:#C2F4EB"
   id="stop3" />
		<stop
   offset="0.2895"
   style="stop-color:#CEF6EA"
   id="stop4" />
		<stop
   offset="0.4961"
   style="stop-color:#D5F8EA"
   id="stop5" />
		<stop
   offset="1"
   style="stop-color:#D7F8EA"
   id="stop6" />
	</linearGradient>
	<path
   style="fill:url(#SVGID_1_);stroke-width:0.496206"
   d="m 376.54624,172.35458 c 0,0 1.02719,13.90484 6.78641,17.18658 0,0 -18.49096,-3.20862 -23.03784,-10.16652 -4.54687,-6.95839 16.25143,-7.02006 16.25143,-7.02006 z"
   id="path6" />
	
		<linearGradient
   id="SVGID_00000162336140605741294590000013698265861838273668_"
   gradientUnits="userSpaceOnUse"
   x1="126.9213"
   y1="325.6419"
   x2="205.8182"
   y2="244.7011"
   gradientTransform="matrix(0.05529515,0.49424975,-0.49191398,0.05555771,554.61827,139.77374)">
		<stop
   offset="0.0397"
   style="stop-color:#06BED8"
   id="stop7" />
		<stop
   offset="1"
   style="stop-color:#DEFA8E"
   id="stop8" />
	</linearGradient>
	<path
   style="fill:url(#SVGID_00000162336140605741294590000013698265861838273668_);stroke-width:0.496206"
   d="m 394.96393,213.38124 c 11.39417,3.136 14.08616,2.25812 16.11679,5.32697 0.23315,0.35215 1.42371,2.15267 1.1856,4.46352 -0.1901,1.84131 -1.21085,3.26233 -1.85291,3.88705 -3.90333,3.79652 -14.64405,-0.84804 -20.79533,-5.92782 -1.34104,-1.10767 -4.93944,-4.07854 -4.21471,-6.18894 0.29702,-0.86445 1.21926,-1.29419 1.88112,-1.59162 2.92614,-1.31508 5.96119,-0.44218 7.67944,0.0308 z"
   id="path8" />
	
		<linearGradient
   id="SVGID_00000179603758579807138330000017611054551750277518_"
   gradientUnits="userSpaceOnUse"
   x1="257.3087"
   y1="145.3989"
   x2="272.0051"
   y2="143.2557"
   gradientTransform="matrix(0.49503268,0,0,0.49738326,296.61232,72.83018)">
		<stop
   offset="0.0397"
   style="stop-color:#06CFF1"
   id="stop9" />
		<stop
   offset="1"
   style="stop-color:#DEFA8E"
   id="stop10" />
	</linearGradient>
	
		<rect
   x="427.71826"
   y="136.43008"
   style="fill:url(#SVGID_00000179603758579807138330000017611054551750277518_);stroke-width:0.496206"
   width="2.4251652"
   height="15.989877"
   id="rect10" />
	
		<linearGradient
   id="SVGID_00000154415369398601776150000013611285715959114680_"
   gradientUnits="userSpaceOnUse"
   x1="253.5602"
   y1="182.7164"
   x2="279.641"
   y2="153.2704"
   gradientTransform="matrix(0.49503268,0,0,0.49738326,296.61232,72.83018)">
		<stop
   offset="0.0397"
   style="stop-color:#06CFF1"
   id="stop11" />
		<stop
   offset="1"
   style="stop-color:#DEFA8E"
   id="stop12" />
	</linearGradient>
	<path
   style="fill:url(#SVGID_00000154415369398601776150000013611285715959114680_);stroke-width:0.496206"
   d="m 437.30556,161.25249 h -16.74893 c -1.2351,0 -2.23606,-1.00571 -2.23606,-2.24668 v -6.01436 c 0,-1.24097 1.00096,-2.24668 2.23606,-2.24668 h 16.74893 c 1.23512,0 2.23607,1.00571 2.23607,2.24668 v 6.01436 c -4.9e-4,1.24097 -1.00145,2.24668 -2.23607,2.24668 z"
   id="path12" />
	
		<linearGradient
   id="SVGID_00000147902338484093633970000010694665826741577653_"
   gradientUnits="userSpaceOnUse"
   x1="215.7845"
   y1="284.7118"
   x2="319.1329"
   y2="181.3633"
   gradientTransform="matrix(0.49503268,0,0,0.49738326,296.61232,72.83018)">
		<stop
   offset="0.0397"
   style="stop-color:#06CFF1"
   id="stop13" />
		<stop
   offset="1"
   style="stop-color:#DEFA8E"
   id="stop14" />
	</linearGradient>
	<path
   style="fill:url(#SVGID_00000147902338484093633970000010694665826741577653_);stroke-width:0.496206"
   d="m 466.89813,196.20212 c 0,9.71389 -7.83786,17.58896 -17.50585,17.58896 h -40.92286 c -9.62839,0 -17.50585,-7.91486 -17.50585,-17.58896 v -9.13694 c 0,-17.21194 14.01587,-31.29485 31.14697,-31.29485 h 13.64112 c 17.13061,0 31.14696,14.08241 31.14696,31.29485 v 9.13694 z"
   id="path14" />
	
		<linearGradient
   id="SVGID_00000155120228513843239130000000790490387072230335_"
   gradientUnits="userSpaceOnUse"
   x1="267.0208"
   y1="246.056"
   x2="267.9394"
   y2="204.7225"
   gradientTransform="matrix(0.49503268,0,0,0.49738326,296.61232,72.83018)">
		<stop
   offset="0"
   style="stop-color:#030D14"
   id="stop15" />
		<stop
   offset="1"
   style="stop-color:#0B2F45"
   id="stop16" />
	</linearGradient>
	<path
   style="fill:url(#SVGID_00000155120228513843239130000000790490387072230335_);stroke-width:0.496206"
   d="m 454.95448,194.53638 v 0 c -0.99354,0.4934 -2.10736,0.75204 -3.23901,0.75204 h -45.56875 c -1.13164,0 -2.24547,-0.25864 -3.23899,-0.75204 v 0 c -2.44052,-1.21212 -3.8177,-3.65975 -3.47316,-6.17054 l 0.0253,-0.18254 c 1.16778,-8.50475 8.83386,-15.04335 18.23255,-15.53477 3.9766,-0.20791 8.14972,-0.31534 12.50255,-0.28997 3.40978,0.0199 6.70571,0.12036 9.87937,0.2845 9.43433,0.48843 17.15684,7.00117 18.32908,15.53825 0.008,0.0612 0.0168,0.12286 0.0253,0.18403 0.34405,2.51129 -1.03363,4.95892 -3.47414,6.17104 z"
   id="path16" />
	<g
   id="g24"
   transform="matrix(0.49503268,0,0,0.49738326,296.61232,72.83018)">
		
			<radialGradient
   id="SVGID_00000018211886156726300520000014623855983873919901_"
   cx="243.0316"
   cy="225.0789"
   r="17.1784"
   gradientUnits="userSpaceOnUse">
			<stop
   offset="0.1296"
   style="stop-color:#3280FC"
   id="stop17" />
			<stop
   offset="1"
   style="stop-color:#000000"
   id="stop18" />
		</radialGradient>
		<circle
   style="fill:url(#SVGID_00000018211886156726300520000014623855983873919901_)"
   cx="243.032"
   cy="225.07899"
   r="17.358"
   id="circle18" />
		<g
   id="g19">
			<circle
   style="fill:#eefdff"
   cx="243.032"
   cy="225.07899"
   r="12.459"
   id="circle19" />
		</g>
		<g
   id="g20">
			
				<linearGradient
   id="SVGID_00000033362865301656935800000009991999107787559561_"
   gradientUnits="userSpaceOnUse"
   x1="232.5672"
   y1="225.0789"
   x2="253.496"
   y2="225.0789">
				<stop
   offset="0"
   style="stop-color:#030D14"
   id="stop19" />
				<stop
   offset="1"
   style="stop-color:#0B2F45"
   id="stop20" />
			</linearGradient>
			<circle
   style="fill:url(#SVGID_00000033362865301656935800000009991999107787559561_)"
   cx="243.032"
   cy="225.07899"
   r="10.464"
   id="circle20" />
		</g>
		<g
   id="g21">
			<path
   style="fill:#eefdff"
   d="m 249.735,222.367 c 0,2.141 -1.735,3.876 -3.876,3.876 -2.141,0 -3.876,-1.736 -3.876,-3.876 0,-2.14 1.735,-3.876 3.876,-3.876 2.141,0 3.876,1.736 3.876,3.876 z"
   id="path20" />
		</g>
		<g
   id="g22">
			<circle
   style="fill:#eefdff"
   cx="241.485"
   cy="233.104"
   r="1.5470001"
   id="circle21" />
		</g>
		<g
   id="g23">
			<path
   style="fill:#eefdff"
   d="m 237.649,230.783 c 0,0.427 -0.346,0.773 -0.773,0.773 -0.427,0 -0.773,-0.346 -0.773,-0.773 0,-0.427 0.346,-0.773 0.773,-0.773 0.427,0 0.773,0.347 0.773,0.773 z"
   id="path22" />
		</g>
	</g>
	<g
   id="g31"
   transform="matrix(0.49503268,0,0,0.49738326,296.61232,72.83018)">
		
			<radialGradient
   id="SVGID_00000013879949440216895660000014560071857704914854_"
   cx="289.9238"
   cy="225.0789"
   r="17.1784"
   gradientUnits="userSpaceOnUse">
			<stop
   offset="0.1296"
   style="stop-color:#3280FC"
   id="stop24" />
			<stop
   offset="1"
   style="stop-color:#000000"
   id="stop25" />
		</radialGradient>
		<circle
   style="fill:url(#SVGID_00000013879949440216895660000014560071857704914854_)"
   cx="289.92401"
   cy="225.07899"
   r="17.358"
   id="circle25" />
		<g
   id="g26">
			<circle
   style="fill:#eefdff"
   cx="289.92401"
   cy="225.07899"
   r="12.459"
   id="circle26" />
		</g>
		<g
   id="g27">
			
				<linearGradient
   id="SVGID_00000062154902142082053850000006219797211032380579_"
   gradientUnits="userSpaceOnUse"
   x1="279.45941"
   y1="225.0789"
   x2="300.38821"
   y2="225.0789">
				<stop
   offset="0"
   style="stop-color:#030D14"
   id="stop26" />
				<stop
   offset="1"
   style="stop-color:#0B2F45"
   id="stop27" />
			</linearGradient>
			<circle
   style="fill:url(#SVGID_00000062154902142082053850000006219797211032380579_)"
   cx="289.92401"
   cy="225.07899"
   r="10.464"
   id="circle27" />
		</g>
		<g
   id="g28">
			<path
   style="fill:#eefdff"
   d="m 296.628,222.367 c 0,2.141 -1.736,3.876 -3.876,3.876 -2.14,0 -3.877,-1.736 -3.877,-3.876 0,-2.14 1.736,-3.876 3.877,-3.876 2.141,0 3.876,1.736 3.876,3.876 z"
   id="path27" />
		</g>
		<g
   id="g29">
			<circle
   style="fill:#eefdff"
   cx="288.37701"
   cy="233.104"
   r="1.5470001"
   id="circle28" />
		</g>
		<g
   id="g30">
			<path
   style="fill:#eefdff"
   d="m 284.541,230.783 c 0,0.427 -0.346,0.773 -0.773,0.773 -0.427,0 -0.773,-0.346 -0.773,-0.773 0,-0.427 0.346,-0.773 0.773,-0.773 0.427,0 0.773,0.347 0.773,0.773 z"
   id="path29" />
		</g>
	</g>
	
		<linearGradient
   id="SVGID_00000088120625222993170300000018402538022134391970_"
   gradientUnits="userSpaceOnUse"
   x1="254.0799"
   y1="127.6524"
   x2="273.5292"
   y2="124.816"
   gradientTransform="matrix(0.49503268,0,0,0.49738326,296.61232,72.83018)">
		<stop
   offset="0.0397"
   style="stop-color:#06CFF1"
   id="stop31" />
		<stop
   offset="1"
   style="stop-color:#DEFA8E"
   id="stop32" />
	</linearGradient>
	<path
   style="fill:url(#SVGID_00000088120625222993170300000018402538022134391970_);stroke-width:0.496206"
   d="m 432.03792,135.36418 c 0,1.72393 -1.39104,3.12208 -3.10732,3.12208 -1.71578,0 -3.10682,-1.39765 -3.10682,-3.12208 0,-1.72393 1.39104,-3.12207 3.10682,-3.12207 1.71628,0 3.10732,1.39765 3.10732,3.12207 z"
   id="path32" />
	<path
   style="fill:#ffffff;stroke-width:0.496206"
   d="m 431.09093,134.1456 c 0,0.52573 -0.42425,0.95149 -0.94749,0.95149 -0.52326,0 -0.9475,-0.42626 -0.9475,-0.95149 0,-0.52574 0.42424,-0.952 0.9475,-0.952 0.52324,5e-4 0.94749,0.42626 0.94749,0.952 z"
   id="path33" />
	<path
   style="fill:#ffffff;stroke-width:0.496206"
   d="m 455.68464,165.78017 c 0.0411,1.45733 -1.14303,3.20066 -2.49942,3.34937 -1.27124,0.13977 -2.28655,-1.16536 -3.33354,-2.51128 -1.03215,-1.32652 -3.289,-4.7346 -2.39003,-5.69852 1.18462,-1.27082 8.12548,1.42201 8.22299,4.86043 z"
   id="path34" />
	<ellipse
   style="fill:#ffffff;stroke-width:0.496206"
   cx="444.07019"
   cy="159.1396"
   id="circle34"
   rx="1.0796663"
   ry="1.0847929" />
	<path
   style="fill:#ffffff;stroke-width:0.496206"
   d="m 455.53069,185.9978 c -0.34653,0.24571 -2.76179,-4.69828 -9.24573,-8.98473 -2.27912,-1.50707 -4.52905,-2.58092 -4.39539,-2.89328 0.13564,-0.31683 2.66971,0.27257 4.69836,1.21809 6.46413,3.01315 9.35463,10.36796 8.94276,10.65992 z"
   id="path35" />
	<path
   style="fill:#ffffff;stroke-width:0.496206"
   d="m 438.9273,153.8554 c -0.0772,0.0109 -0.12674,-0.44516 -0.50494,-1.14995 0,0 -0.17673,-0.32976 -0.3787,-0.60929 -0.65097,-0.90027 -2.85782,-0.88037 -3.03108,-0.87888 -3.43702,0.0298 -5.64684,-0.189 -5.64586,-0.16811 5.1e-4,0.0174 1.61233,-0.0154 2.79347,-0.0393 3.33207,-0.0681 5.31715,-0.24819 6.16811,0.64859 0.35296,0.37204 0.53068,0.85649 0.53068,0.85649 0.24059,0.65754 0.16039,1.32702 0.0683,1.34045 z"
   id="path36" />
	<path
   style="fill:#eefdff;stroke-width:0.496206"
   d="m 438.21247,198.99343 c -0.0841,0.82715 -0.76929,1.4643 -1.59301,1.54388 l -11.38279,1.1027 c -0.82324,0.0796 -1.61727,-0.41333 -1.85736,-1.20914 -0.10693,-0.35364 -0.1891,-0.71822 -0.24504,-1.09325 -0.0153,-0.10346 0.0119,-0.2089 0.0763,-0.29196 0.0643,-0.0826 0.15939,-0.1348 0.26335,-0.14524 l 14.36041,-1.39168 c 0.10247,-0.01 0.20395,0.0229 0.28167,0.0905 0.0777,0.0676 0.12376,0.16464 0.12822,0.2676 0.0173,0.38149 0.006,0.75751 -0.0317,1.12657 z"
   id="path37" />
	
		<linearGradient
   id="SVGID_00000085215910500040245870000003427998582676835513_"
   gradientUnits="userSpaceOnUse"
   x1="266.6646"
   y1="262.1102"
   x2="296.5875"
   y2="232.1873"
   gradientTransform="matrix(0.49503268,0,0,0.49738326,296.61232,72.83018)">
		<stop
   offset="0.0714"
   style="stop-color:#0DA9AB"
   id="stop37" />
		<stop
   offset="1"
   style="stop-color:#DEFA8E"
   id="stop38" />
	</linearGradient>
	<path
   style="fill:url(#SVGID_00000085215910500040245870000003427998582676835513_);stroke-width:0.496206"
   d="m 438.21296,198.99442 c -0.36385,3.54535 -3.1692,6.46002 -6.83392,6.81167 -3.61473,0.35165 -6.87948,-1.9005 -7.9527,-5.23546 0.28662,0.71275 1.03214,1.14697 1.80983,1.06888 l 11.38576,-1.10121 c 0.82274,-0.0821 1.5049,-0.71722 1.59103,-1.54388 z"
   id="path38" />
	
		<linearGradient
   id="SVGID_00000114774809475665888460000004890406981806392244_"
   gradientUnits="userSpaceOnUse"
   x1="238.4036"
   y1="352.9143"
   x2="317.6843"
   y2="260.3349"
   gradientTransform="matrix(0.49503268,0,0,0.49738326,296.61232,72.83018)">
		<stop
   offset="0.0397"
   style="stop-color:#06CFF1"
   id="stop39" />
		<stop
   offset="0.0408"
   style="stop-color:#06CFF1"
   id="stop40" />
		<stop
   offset="0.1607"
   style="stop-color:#37D9DB"
   id="stop41" />
		<stop
   offset="0.2745"
   style="stop-color:#5DE0CA"
   id="stop42" />
		<stop
   offset="0.3793"
   style="stop-color:#78E6BD"
   id="stop43" />
		<stop
   offset="0.4719"
   style="stop-color:#88E9B6"
   id="stop44" />
		<stop
   offset="0.5423"
   style="stop-color:#8EEAB3"
   id="stop45" />
		<stop
   offset="0.8004"
   style="stop-color:#B9F39F"
   id="stop46" />
		<stop
   offset="1"
   style="stop-color:#DEFA8E"
   id="stop47" />
	</linearGradient>
	<path
   style="fill:url(#SVGID_00000114774809475665888460000004890406981806392244_);stroke-width:0.496206"
   d="m 456.147,224.68079 c 0,0.10495 0,0.20542 -0.005,0.30141 -0.0361,0.95945 -0.25939,1.68116 -0.3683,2.00545 -3.13306,9.61691 -5.01073,14.68823 -7.64331,18.79064 -0.45444,0.70828 -0.93214,1.3887 -1.44599,2.05569 -0.67275,0.89081 -1.40936,1.75875 -2.22814,2.65453 -1.81875,1.98755 -4.56965,2.88731 -5.45625,3.19818 -3.24197,1.15144 -6.10672,0.94105 -8.01161,0.95945 h -0.33217 c -1.90983,-0.0184 -4.76963,0.19199 -8.0116,-0.95945 -0.88661,-0.31087 -3.64196,-1.21063 -5.45626,-3.19818 -5.0018,-5.46873 -6.92501,-10.01431 -11.31743,-23.50086 -0.10445,-0.31037 -0.31385,-0.98233 -0.36385,-1.8821 -0.0134,-0.26063 -0.0183,-0.52076 -0.005,-0.78139 0.0956,-1.61251 0.74552,-3.19369 1.90093,-4.6371 1.97815,-2.47597 5.03349,-3.83283 8.19378,-3.84676 l 15.2277,-0.0642 14.95048,-0.0592 c 3.2286,-0.0139 6.35672,1.34791 8.40714,3.85571 0.99156,1.21511 1.62321,2.52621 1.85538,3.8786 0.0317,0.19199 0.0589,0.38845 0.0772,0.58044 0.0173,0.21487 0.0312,0.42974 0.0312,0.64909 z"
   id="path47" />
	
		<linearGradient
   id="SVGID_00000138534491986264145230000009194552508848950150_"
   gradientUnits="userSpaceOnUse"
   x1="234.2039"
   y1="306.7595"
   x2="281.8803"
   y2="251.0858"
   gradientTransform="matrix(0.49503268,0,0,0.49738326,296.61232,72.83018)">
		<stop
   offset="0.0397"
   style="stop-color:#06CFF1"
   id="stop48" />
		<stop
   offset="1"
   style="stop-color:#DEFA8E"
   id="stop49" />
	</linearGradient>
	<path
   style="fill:url(#SVGID_00000138534491986264145230000009194552508848950150_);stroke-width:0.496206"
   d="m 430.82262,215.77862 -15.2277,0.0642 c -3.16029,0.0139 -6.21563,1.37078 -8.19378,3.84676 -1.15491,1.4439 -1.80489,3.02458 -1.90093,4.6371 0.0772,-1.6538 0.75493,-3.27576 1.95984,-4.7515 2.04597,-2.5083 5.17903,-3.86964 8.40714,-3.85572 z"
   id="path49" />
	
		<linearGradient
   id="SVGID_00000148650961268395584350000012783459194915067324_"
   gradientUnits="userSpaceOnUse"
   x1="379.9959"
   y1="355.0414"
   x2="445.2136"
   y2="321.0547"
   gradientTransform="matrix(-0.48938931,-0.07485618,-0.07450242,0.49171309,675.6792,95.354479)">
		<stop
   offset="0.0397"
   style="stop-color:#06CFF1"
   id="stop50" />
		<stop
   offset="0.0734"
   style="stop-color:#0FD1ED"
   id="stop51" />
		<stop
   offset="0.4151"
   style="stop-color:#67E2C5"
   id="stop52" />
		<stop
   offset="0.6937"
   style="stop-color:#A7EFA7"
   id="stop53" />
		<stop
   offset="0.8955"
   style="stop-color:#CFF795"
   id="stop54" />
		<stop
   offset="1"
   style="stop-color:#DEFA8E"
   id="stop55" />
	</linearGradient>
	<path
   style="fill:url(#SVGID_00000148650961268395584350000012783459194915067324_);stroke-width:0.496206"
   d="m 445.95726,238.31953 c -0.22227,-11.86806 -1.82073,-14.21521 0.53661,-17.03836 0.27078,-0.32429 1.65341,-1.98008 3.92709,-2.40285 1.81182,-0.33673 3.45632,0.2462 4.23451,0.68887 4.72658,2.69035 3.32415,14.35448 0.21039,21.71774 -0.67869,1.60556 -2.49991,5.9124 -4.71964,5.80944 -0.90938,-0.0423 -1.58015,-0.81024 -2.05043,-1.36382 -2.08161,-2.44962 -2.10488,-5.62193 -2.13853,-7.41102 z"
   id="path55" />
	
		<linearGradient
   id="SVGID_00000142147404709463399300000014273441360181628339_"
   gradientUnits="userSpaceOnUse"
   x1="284.3322"
   y1="334.8798"
   x2="326.4004"
   y2="312.9569"
   gradientTransform="matrix(0.49503268,0,0,0.49738326,296.61232,72.83018)">
		<stop
   offset="0.0397"
   style="stop-color:#06BED8"
   id="stop56" />
		<stop
   offset="1"
   style="stop-color:#DEFA8E"
   id="stop57" />
	</linearGradient>
	<path
   style="fill:url(#SVGID_00000142147404709463399300000014273441360181628339_);stroke-width:0.496206"
   d="m 448.13045,245.77829 c -0.45444,0.70828 -0.93215,1.3887 -1.44599,2.05569 -0.16386,-0.16911 -0.3094,-0.33822 -0.44107,-0.49341 -2.08261,-2.44861 -2.10538,-5.61943 -2.13706,-7.41001 -0.22277,-11.86906 -1.82321,-14.21273 0.53661,-17.03637 0.17277,-0.2099 0.80492,-0.96393 1.83262,-1.58964 -2.32815,2.8142 -0.74107,5.18074 -0.5183,17.01349 0.0317,1.79058 0.0589,4.9614 2.13705,7.41499 0.0134,0.0134 0.0273,0.0269 0.0361,0.0453 z"
   id="path57" />
	<path
   style="fill:#ffffff;stroke-width:0.496206"
   d="m 454.79606,228.43653 c -0.0669,-1.27529 -0.30494,-2.21286 -0.78116,-4.08899 -0.62275,-2.45409 -1.40391,-3.65029 -0.8965,-4.1243 0.33018,-0.30838 0.98066,-0.1 1.12818,-0.0527 2.23259,0.71573 2.92366,4.92409 2.82763,7.55774 -0.0589,1.61251 -0.45048,3.41553 -1.03858,3.49511 -0.0926,0.0124 -0.32326,5e-4 -0.48811,-0.14623 -0.65641,-0.58244 -0.70047,-1.67121 -0.75146,-2.64061 z"
   id="path58" />
	<path
   style="fill:#ffffff;stroke-width:0.496206"
   d="m 456.32918,232.93735 c 0,0.25715 -0.20742,0.46555 -0.46335,0.46555 -0.25593,0 -0.46336,-0.2084 -0.46336,-0.46555 0,-0.25715 0.20743,-0.46555 0.46336,-0.46555 0.25593,0 0.46335,0.2084 0.46335,0.46555 z"
   id="path59" />
	
		<radialGradient
   id="SVGID_00000005989100045373852490000015507407940870264481_"
   cx="268.9718"
   cy="259.9652"
   r="48.488"
   gradientTransform="matrix(0.50097308,0,0,0.20606588,295.39584,212.52116)"
   gradientUnits="userSpaceOnUse">
		<stop
   offset="0"
   style="stop-color:#BCD7D6"
   id="stop59" />
		<stop
   offset="1"
   style="stop-color:#FFFFFF"
   id="stop60" />
	</radialGradient>
	
		<ellipse
   style="fill:url(#SVGID_00000005989100045373852490000015507407940870264481_);stroke-width:0.496206"
   cx="430.14346"
   cy="266.09091"
   rx="24.291254"
   ry="9.9919329"
   id="ellipse60" />
	
		<linearGradient
   id="SVGID_00000080904704391898222810000005549099685581539727_"
   gradientUnits="userSpaceOnUse"
   x1="19.0332"
   y1="166.7528"
   x2="181.0072"
   y2="166.7528"
   gradientTransform="matrix(0.49503268,0,0,0.49738326,296.61232,72.83018)">
		<stop
   offset="0"
   style="stop-color:#D7F8EA"
   id="stop61" />
		<stop
   offset="0.5053"
   style="stop-color:#ECF8F2"
   id="stop62" />
		<stop
   offset="1"
   style="stop-color:#D7F8EA"
   id="stop63" />
	</linearGradient>
	<path
   style="fill:url(#SVGID_00000080904704391898222810000005549099685581539727_);stroke-width:0.496206"
   d="m 362.72394,179.37464 h -33.19689 c -12.92085,0 -23.49276,-10.62211 -23.49276,-23.60431 v 0 c 0,-12.9822 10.57191,-23.60432 23.49276,-23.60432 h 33.19689 c 12.92085,0 23.49277,10.62212 23.49277,23.60432 v 0 c 0,12.9822 -10.57142,23.60431 -23.49277,23.60431 z"
   id="path63" />
	
	
	
	
	
	
	
	
<text
   xml:space="preserve"
   style="font-style:normal;font-variant:normal;font-weight:900;font-stretch:normal;font-size:24.614px;font-family:Arial;-inkscape-font-specification:'Arial, Heavy';font-variant-ligatures:normal;font-variant-caps:normal;font-variant-numeric:normal;font-variant-east-asian:normal;fill:#07cff1;fill-opacity:1;stroke-width:0.615351;stroke-linecap:round"
   x="315.13898"
   y="164.10197"
   id="text86"
   transform="scale(0.99763429,1.0023713)"><tspan
     sodipodi:role="line"
     id="tspan86"
     x="315.13898"
     y="164.10197"
     style="font-style:normal;font-variant:normal;font-weight:900;font-stretch:normal;font-size:24.614px;font-family:Arial;-inkscape-font-specification:'Arial, Heavy';font-variant-ligatures:normal;font-variant-caps:normal;font-variant-numeric:normal;font-variant-east-asian:normal;fill:#07cff1;fill-opacity:1;stroke-width:0.615351">Hola</tspan></text><text
   xml:space="preserve"
   style="font-style:normal;font-variant:normal;font-weight:900;font-stretch:normal;font-size:49.6043px;font-family:Arial;-inkscape-font-specification:'Arial, Heavy';font-variant-ligatures:normal;font-variant-caps:normal;font-variant-numeric:normal;font-variant-east-asian:normal;fill:#07cff1;fill-opacity:1;stroke-width:0.4;stroke-linecap:round"
   x="29.601028"
   y="234.23425"
   id="text87"><tspan
     sodipodi:role="line"
     id="tspan87"
     x="29.601028"
     y="234.23425">Pregúntame!</tspan></text><text
   xml:space="preserve"
   style="font-style:normal;font-variant:normal;font-weight:900;font-stretch:normal;font-size:22.6134px;font-family:Arial;-inkscape-font-specification:'Arial, Heavy';font-variant-ligatures:normal;font-variant-caps:normal;font-variant-numeric:normal;font-variant-east-asian:normal;fill:#77e6bd;fill-opacity:1;stroke-width:0.18235;stroke-linecap:round"
   x="245.89693"
   y="250.03833"
   id="text88"
   transform="scale(0.96055848,1.041061)"><tspan
     sodipodi:role="line"
     id="tspan88"
     x="245.89693"
     y="250.03833"
     style="fill:#77e6bd;stroke-width:0.18235;fill-opacity:1">Chatbot IJR</tspan></text></g>
<path
   style="fill:#ffffff;stroke-width:0.496206"
   d="m 383.26829,149.91911 c -0.52176,0.38945 -4.1553,-6.67737 -13.22875,-11.52089 -5.10478,-2.72466 -9.269,-3.325 -9.16009,-3.8199 0.12772,-0.58045 6.07802,-0.79482 11.47288,1.91691 8.10269,4.07308 11.48079,13.0026 10.91596,13.42388 z"
   id="path83" />
<ellipse
   style="fill:#ffffff;stroke-width:0.496206"
   cx="383.94995"
   cy="152.64229"
   id="circle83"
   rx="0.62126601"
   ry="0.62421596" />
<ellipse
   style="fill:#ffffff;stroke-width:0.496206"
   cx="335.32635"
   cy="134.68427"
   rx="4.3582678"
   ry="0.99476653"
   id="ellipse83" />
<path
   style="fill:#ffffff;stroke-width:0.496206"
   d="m 345.01663,134.68426 c 0,0.29744 -0.5282,0.53867 -1.18017,0.53867 -0.65196,0 -1.18016,-0.24123 -1.18016,-0.53867 0,-0.29743 0.5282,-0.53866 1.18016,-0.53866 0.65197,0 1.18017,0.24123 1.18017,0.53866 z"
   id="path84" />

<path
   style="fill:#ffffff;stroke-width:0.496206"
   d="m 377.63284,182.42012 c 0.70839,1.99849 1.44996,3.16634 1.27867,3.27428 -0.19306,0.12186 -1.47074,-1.14995 -2.22764,-2.81867 -1.32422,-2.91964 -0.61285,-6.0835 -0.33019,-6.09295 0.23811,-0.007 0.0673,2.21932 1.27916,5.63734 z"
   id="path86" />
</svg>
